<svg width="32" height="32" viewBox="0 0 32 32" fill="none" xmlns="http://www.w3.org/2000/svg">
  <rect width="32" height="32" rx="6" fill="url(#gradient)"/>
  
  <!-- A letter -->
  <path d="M8 22V10L12 20L16 10L20 20L24 10V22H22V12L18 22H14L10 12V22H8Z" fill="white"/>
  
  <!-- G letter -->
  <path d="M8 26C6.9 26 6 25.1 6 24V8C6 6.9 6.9 6 8 6H24C25.1 6 26 6.9 26 8V24C26 25.1 25.1 26 24 26H8ZM8 24H24V8H8V24ZM12 18H20V16H14V12H20V10H12V18Z" fill="white" opacity="0.8"/>
  
  <defs>
    <linearGradient id="gradient" x1="0%" y1="0%" x2="100%" y2="100%">
      <stop offset="0%" style="stop-color:#6366F1;stop-opacity:1" />
      <stop offset="100%" style="stop-color:#06B6D4;stop-opacity:1" />
    </linearGradient>
  </defs>
</svg> 